<svg width="615" height="85" viewBox="0 0 615 85" fill="none" xmlns="http://www.w3.org/2000/svg">
<path d="M116.742 60.6769L102.008 62.1159L115.091 47.0411L114.03 45.5077L100.475 50.6741L99.0133 53.2927L106.77 50.3203L90.2671 61.5026L107.595 29.1352L106.085 27.9085L83.9256 44.8235L90.88 10.5925L89.1356 9.83758L71.1245 35.387L71.6668 37.982L85.4579 18.3541L70.7238 52.9861L59.6673 0H57.7577L49.5067 39.8693L28.2895 9.83758L26.545 10.5925L32.3208 38.9021L34.6782 40.6714L30.364 19.6279L44.5088 53.222L33.4995 44.8235L11.2687 27.9085L9.83061 29.1352L27.1343 61.5026L10.6321 50.3203L18.3882 53.2927L16.9972 50.6741L3.39474 45.5077L2.35746 47.0411L15.4413 62.1159L0.683663 60.6769L0 62.4226L20.3213 78.0637L20.7457 78.2524L58.465 84.9287H58.9365L96.6559 78.2524L97.0802 78.0637L117.401 62.4226L116.742 60.6769ZM7.59102 63.2955L29.5154 65.4423L51.1097 80.0218L7.59102 63.2955ZM30.5762 63.8145L15.6064 35.8352L53.1607 79.0545L30.5762 63.8145ZM57.7342 79.2197L47.9507 56.1002L57.7342 9.43653V79.2197ZM71.2896 56.8079L99.8619 35.1038L62.0012 78.7242L71.2896 56.8079ZM87.9097 65.4423L109.81 63.2955L66.2918 80.0218L87.9097 65.4423Z" fill="#00AC49"/>
<path d="M166.335 64H152.413V24.7273H166.45C170.401 24.7273 173.801 25.5135 176.652 27.0859C179.503 28.6456 181.695 30.8892 183.229 33.8168C184.776 36.7443 185.55 40.2472 185.55 44.3253C185.55 48.4162 184.776 51.9318 183.229 54.8722C181.695 57.8125 179.49 60.0689 176.614 61.6413C173.75 63.2138 170.324 64 166.335 64ZM160.717 56.8857H165.99C168.445 56.8857 170.509 56.451 172.184 55.5817C173.871 54.6996 175.137 53.3381 175.981 51.4972C176.837 49.6435 177.266 47.2528 177.266 44.3253C177.266 41.4233 176.837 39.0518 175.981 37.2109C175.137 35.37 173.878 34.0149 172.203 33.1456C170.528 32.2763 168.464 31.8416 166.009 31.8416H160.717V56.8857ZM204.97 64.5753C201.941 64.5753 199.333 63.9616 197.146 62.7344C194.973 61.4943 193.298 59.7429 192.122 57.4801C190.946 55.2045 190.358 52.5135 190.358 49.407C190.358 46.3771 190.946 43.718 192.122 41.4297C193.298 39.1413 194.954 37.358 197.089 36.0795C199.237 34.8011 201.755 34.1619 204.644 34.1619C206.588 34.1619 208.396 34.4751 210.071 35.1016C211.759 35.7152 213.229 36.642 214.482 37.8821C215.747 39.1222 216.732 40.6818 217.435 42.5611C218.138 44.4276 218.49 46.6136 218.49 49.1193V51.3629H193.618V46.3004H210.8C210.8 45.1243 210.544 44.0824 210.033 43.1747C209.521 42.267 208.812 41.5575 207.904 41.0462C207.009 40.522 205.968 40.2599 204.779 40.2599C203.539 40.2599 202.439 40.5476 201.48 41.1229C200.534 41.6854 199.793 42.446 199.256 43.4048C198.719 44.3509 198.444 45.4055 198.431 46.5689V51.3821C198.431 52.8395 198.7 54.0987 199.237 55.1598C199.786 56.2209 200.56 57.0391 201.557 57.6143C202.554 58.1896 203.737 58.4773 205.105 58.4773C206.012 58.4773 206.843 58.3494 207.597 58.0938C208.352 57.8381 208.997 57.4545 209.534 56.9432C210.071 56.4318 210.48 55.8054 210.762 55.0639L218.317 55.5625C217.933 57.3778 217.147 58.9631 215.958 60.3182C214.782 61.6605 213.261 62.7088 211.394 63.4631C209.541 64.2045 207.399 64.5753 204.97 64.5753ZM250.49 34.5455L240.192 64H230.988L220.69 34.5455H229.319L235.436 55.62H235.743L241.841 34.5455H250.49ZM267.144 64.5753C264.114 64.5753 261.506 63.9616 259.32 62.7344C257.147 61.4943 255.472 59.7429 254.296 57.4801C253.12 55.2045 252.532 52.5135 252.532 49.407C252.532 46.3771 253.12 43.718 254.296 41.4297C255.472 39.1413 257.128 37.358 259.263 36.0795C261.411 34.8011 263.929 34.1619 266.818 34.1619C268.761 34.1619 270.57 34.4751 272.245 35.1016C273.933 35.7152 275.403 36.642 276.656 37.8821C277.921 39.1222 278.906 40.6818 279.609 42.5611C280.312 44.4276 280.663 46.6136 280.663 49.1193V51.3629H255.792V46.3004H272.974C272.974 45.1243 272.718 44.0824 272.207 43.1747C271.695 42.267 270.986 41.5575 270.078 41.0462C269.183 40.522 268.141 40.2599 266.952 40.2599C265.712 40.2599 264.613 40.5476 263.654 41.1229C262.708 41.6854 261.967 42.446 261.43 43.4048C260.893 44.3509 260.618 45.4055 260.605 46.5689V51.3821C260.605 52.8395 260.874 54.0987 261.411 55.1598C261.96 56.2209 262.734 57.0391 263.731 57.6143C264.728 58.1896 265.911 58.4773 267.278 58.4773C268.186 58.4773 269.017 58.3494 269.771 58.0938C270.526 57.8381 271.171 57.4545 271.708 56.9432C272.245 56.4318 272.654 55.8054 272.935 55.0639L280.491 55.5625C280.107 57.3778 279.321 58.9631 278.132 60.3182C276.956 61.6605 275.435 62.7088 273.568 63.4631C271.714 64.2045 269.573 64.5753 267.144 64.5753ZM294.163 24.7273V64H285.994V24.7273H294.163ZM314.015 64.5753C311.037 64.5753 308.461 63.9425 306.287 62.6768C304.127 61.3984 302.459 59.6214 301.282 57.3459C300.106 55.0575 299.518 52.4048 299.518 49.3878C299.518 46.3452 300.106 43.6861 301.282 41.4105C302.459 39.1222 304.127 37.3452 306.287 36.0795C308.461 34.8011 311.037 34.1619 314.015 34.1619C316.994 34.1619 319.564 34.8011 321.724 36.0795C323.898 37.3452 325.572 39.1222 326.748 41.4105C327.925 43.6861 328.513 46.3452 328.513 49.3878C328.513 52.4048 327.925 55.0575 326.748 57.3459C325.572 59.6214 323.898 61.3984 321.724 62.6768C319.564 63.9425 316.994 64.5753 314.015 64.5753ZM314.054 58.2472C315.409 58.2472 316.54 57.8636 317.448 57.0966C318.356 56.3168 319.04 55.2557 319.5 53.9134C319.973 52.571 320.209 51.0433 320.209 49.3303C320.209 47.6172 319.973 46.0895 319.5 44.7472C319.04 43.4048 318.356 42.3437 317.448 41.5639C316.54 40.7841 315.409 40.3942 314.054 40.3942C312.686 40.3942 311.535 40.7841 310.602 41.5639C309.682 42.3437 308.985 43.4048 308.512 44.7472C308.052 46.0895 307.822 47.6172 307.822 49.3303C307.822 51.0433 308.052 52.571 308.512 53.9134C308.985 55.2557 309.682 56.3168 310.602 57.0966C311.535 57.8636 312.686 58.2472 314.054 58.2472ZM333.824 75.0455V34.5455H341.878V39.4929H342.243C342.601 38.7003 343.118 37.8949 343.796 37.0767C344.486 36.2457 345.381 35.5554 346.481 35.0057C347.593 34.4432 348.974 34.1619 350.623 34.1619C352.77 34.1619 354.752 34.7244 356.567 35.8494C358.383 36.9616 359.834 38.6428 360.92 40.8928C362.007 43.13 362.55 45.9361 362.55 49.3111C362.55 52.5966 362.02 55.3707 360.959 57.6335C359.91 59.8835 358.479 61.5902 356.663 62.7536C354.861 63.9041 352.841 64.4794 350.604 64.4794C349.018 64.4794 347.67 64.2173 346.557 63.6932C345.458 63.169 344.557 62.5107 343.854 61.718C343.15 60.9126 342.613 60.1009 342.243 59.2827H341.993V75.0455H333.824ZM341.821 49.2727C341.821 51.0241 342.064 52.5518 342.55 53.8558C343.035 55.1598 343.738 56.1761 344.659 56.9048C345.579 57.6207 346.698 57.9787 348.015 57.9787C349.344 57.9787 350.469 57.6143 351.39 56.8857C352.31 56.1442 353.007 55.1214 353.48 53.8175C353.966 52.5007 354.209 50.9858 354.209 49.2727C354.209 47.5724 353.972 46.0767 353.499 44.7855C353.026 43.4943 352.329 42.4844 351.409 41.7557C350.488 41.027 349.357 40.6626 348.015 40.6626C346.685 40.6626 345.56 41.0142 344.64 41.7173C343.732 42.4205 343.035 43.4176 342.55 44.7088C342.064 46 341.821 47.5213 341.821 49.2727ZM381.42 64.5753C378.39 64.5753 375.782 63.9616 373.596 62.7344C371.422 61.4943 369.748 59.7429 368.572 57.4801C367.395 55.2045 366.807 52.5135 366.807 49.407C366.807 46.3771 367.395 43.718 368.572 41.4297C369.748 39.1413 371.403 37.358 373.538 36.0795C375.686 34.8011 378.204 34.1619 381.094 34.1619C383.037 34.1619 384.846 34.4751 386.52 35.1016C388.208 35.7152 389.678 36.642 390.931 37.8821C392.197 39.1222 393.181 40.6818 393.884 42.5611C394.587 44.4276 394.939 46.6136 394.939 49.1193V51.3629H370.067V46.3004H387.249C387.249 45.1243 386.993 44.0824 386.482 43.1747C385.971 42.267 385.261 41.5575 384.354 41.0462C383.459 40.522 382.417 40.2599 381.228 40.2599C379.988 40.2599 378.888 40.5476 377.93 41.1229C376.983 41.6854 376.242 42.446 375.705 43.4048C375.168 44.3509 374.893 45.4055 374.881 46.5689V51.3821C374.881 52.8395 375.149 54.0987 375.686 55.1598C376.236 56.2209 377.009 57.0391 378.006 57.6143C379.003 58.1896 380.186 58.4773 381.554 58.4773C382.461 58.4773 383.292 58.3494 384.047 58.0938C384.801 57.8381 385.447 57.4545 385.983 56.9432C386.52 56.4318 386.93 55.8054 387.211 55.0639L394.766 55.5625C394.383 57.3778 393.596 58.9631 392.407 60.3182C391.231 61.6605 389.71 62.7088 387.844 63.4631C385.99 64.2045 383.849 64.5753 381.42 64.5753ZM400.27 64V34.5455H408.189V39.6847H408.496C409.033 37.8565 409.934 36.4759 411.2 35.5426C412.466 34.5966 413.923 34.1236 415.572 34.1236C415.981 34.1236 416.422 34.1491 416.895 34.2003C417.368 34.2514 417.784 34.3217 418.142 34.4112V41.6598C417.758 41.5447 417.228 41.4425 416.55 41.353C415.873 41.2635 415.253 41.2188 414.69 41.2188C413.488 41.2188 412.415 41.4808 411.469 42.005C410.535 42.5163 409.794 43.2322 409.244 44.1527C408.707 45.0732 408.439 46.1342 408.439 47.3359V64H400.27ZM469.668 38.4766H461.269C461.116 37.3899 460.802 36.4247 460.329 35.581C459.856 34.7244 459.249 33.9957 458.508 33.3949C457.766 32.794 456.91 32.3338 455.938 32.0142C454.979 31.6946 453.937 31.5348 452.812 31.5348C450.78 31.5348 449.009 32.0398 447.501 33.0497C445.992 34.0469 444.822 35.5043 443.991 37.4219C443.16 39.3267 442.745 41.6406 442.745 44.3636C442.745 47.1634 443.16 49.5156 443.991 51.4205C444.835 53.3253 446.011 54.7635 447.52 55.7351C449.028 56.7067 450.773 57.1925 452.755 57.1925C453.867 57.1925 454.896 57.0455 455.842 56.7514C456.801 56.4574 457.651 56.0291 458.393 55.4666C459.134 54.8913 459.748 54.1946 460.233 53.3764C460.732 52.5582 461.077 51.625 461.269 50.5767L469.668 50.6151C469.451 52.4176 468.907 54.1562 468.038 55.831C467.182 57.4929 466.025 58.9822 464.567 60.299C463.123 61.603 461.397 62.6385 459.39 63.4055C457.395 64.1598 455.139 64.5369 452.621 64.5369C449.118 64.5369 445.986 63.7443 443.224 62.1591C440.476 60.5739 438.302 58.2791 436.704 55.2749C435.119 52.2706 434.327 48.6335 434.327 44.3636C434.327 40.081 435.132 36.4375 436.743 33.4332C438.354 30.429 440.54 28.1406 443.301 26.5682C446.062 24.983 449.169 24.1903 452.621 24.1903C454.896 24.1903 457.006 24.5099 458.949 25.1491C460.905 25.7884 462.637 26.7216 464.145 27.9489C465.654 29.1634 466.881 30.6527 467.827 32.4169C468.786 34.1811 469.4 36.201 469.668 38.4766ZM488.892 64.5753C485.862 64.5753 483.254 63.9616 481.068 62.7344C478.895 61.4943 477.22 59.7429 476.044 57.4801C474.868 55.2045 474.28 52.5135 474.28 49.407C474.28 46.3771 474.868 43.718 476.044 41.4297C477.22 39.1413 478.876 37.358 481.011 36.0795C483.159 34.8011 485.677 34.1619 488.566 34.1619C490.509 34.1619 492.318 34.4751 493.993 35.1016C495.681 35.7152 497.151 36.642 498.404 37.8821C499.669 39.1222 500.654 40.6818 501.357 42.5611C502.06 44.4276 502.411 46.6136 502.411 49.1193V51.3629H477.54V46.3004H494.722C494.722 45.1243 494.466 44.0824 493.955 43.1747C493.443 42.267 492.734 41.5575 491.826 41.0462C490.931 40.522 489.889 40.2599 488.7 40.2599C487.46 40.2599 486.361 40.5476 485.402 41.1229C484.456 41.6854 483.715 42.446 483.178 43.4048C482.641 44.3509 482.366 45.4055 482.353 46.5689V51.3821C482.353 52.8395 482.622 54.0987 483.159 55.1598C483.708 56.2209 484.482 57.0391 485.479 57.6143C486.476 58.1896 487.659 58.4773 489.026 58.4773C489.934 58.4773 490.765 58.3494 491.519 58.0938C492.274 57.8381 492.919 57.4545 493.456 56.9432C493.993 56.4318 494.402 55.8054 494.683 55.0639L502.239 55.5625C501.855 57.3778 501.069 58.9631 499.88 60.3182C498.704 61.6605 497.183 62.7088 495.316 63.4631C493.463 64.2045 491.321 64.5753 488.892 64.5753ZM515.911 46.9716V64H507.742V34.5455H515.528V39.7422H515.873C516.525 38.0291 517.618 36.674 519.152 35.6768C520.686 34.6669 522.546 34.1619 524.732 34.1619C526.778 34.1619 528.561 34.6094 530.083 35.5043C531.604 36.3991 532.786 37.6776 533.63 39.3395C534.474 40.9886 534.896 42.9574 534.896 45.2457V64H526.727V46.7031C526.74 44.9006 526.279 43.4943 525.346 42.4844C524.413 41.4616 523.128 40.9503 521.492 40.9503C520.392 40.9503 519.421 41.1868 518.577 41.6598C517.746 42.1328 517.094 42.8232 516.621 43.7308C516.161 44.6257 515.924 45.706 515.911 46.9716ZM557.001 34.5455V40.6818H539.263V34.5455H557.001ZM543.29 27.4886H551.459V54.9489C551.459 55.7031 551.574 56.2912 551.804 56.7131C552.034 57.1222 552.354 57.4098 552.763 57.576C553.185 57.7422 553.671 57.8253 554.221 57.8253C554.604 57.8253 554.988 57.7933 555.371 57.7294C555.755 57.6527 556.049 57.5952 556.253 57.5568L557.538 63.6357C557.129 63.7635 556.554 63.9105 555.812 64.0767C555.071 64.2557 554.169 64.3643 553.108 64.4027C551.14 64.4794 549.414 64.2173 547.931 63.6165C546.461 63.0156 545.316 62.0824 544.498 60.8168C543.68 59.5511 543.277 57.9531 543.29 56.0227V27.4886ZM575.429 64.5753C572.4 64.5753 569.792 63.9616 567.605 62.7344C565.432 61.4943 563.757 59.7429 562.581 57.4801C561.405 55.2045 560.817 52.5135 560.817 49.407C560.817 46.3771 561.405 43.718 562.581 41.4297C563.757 39.1413 565.413 37.358 567.548 36.0795C569.696 34.8011 572.214 34.1619 575.103 34.1619C577.047 34.1619 578.855 34.4751 580.53 35.1016C582.218 35.7152 583.688 36.642 584.941 37.8821C586.206 39.1222 587.191 40.6818 587.894 42.5611C588.597 44.4276 588.949 46.6136 588.949 49.1193V51.3629H564.077V46.3004H581.259C581.259 45.1243 581.003 44.0824 580.492 43.1747C579.98 42.267 579.271 41.5575 578.363 41.0462C577.468 40.522 576.426 40.2599 575.238 40.2599C573.998 40.2599 572.898 40.5476 571.939 41.1229C570.993 41.6854 570.252 42.446 569.715 43.4048C569.178 44.3509 568.903 45.4055 568.89 46.5689V51.3821C568.89 52.8395 569.159 54.0987 569.696 55.1598C570.245 56.2209 571.019 57.0391 572.016 57.6143C573.013 58.1896 574.196 58.4773 575.564 58.4773C576.471 58.4773 577.302 58.3494 578.056 58.0938C578.811 57.8381 579.456 57.4545 579.993 56.9432C580.53 56.4318 580.939 55.8054 581.221 55.0639L588.776 55.5625C588.392 57.3778 587.606 58.9631 586.417 60.3182C585.241 61.6605 583.72 62.7088 581.853 63.4631C580 64.2045 577.858 64.5753 575.429 64.5753ZM594.279 64V34.5455H602.199V39.6847H602.506C603.043 37.8565 603.944 36.4759 605.21 35.5426C606.475 34.5966 607.933 34.1236 609.582 34.1236C609.991 34.1236 610.432 34.1491 610.905 34.2003C611.378 34.2514 611.794 34.3217 612.152 34.4112V41.6598C611.768 41.5447 611.238 41.4425 610.56 41.353C609.882 41.2635 609.262 41.2188 608.7 41.2188C607.498 41.2188 606.424 41.4808 605.478 42.005C604.545 42.5163 603.804 43.2322 603.254 44.1527C602.717 45.0732 602.449 46.1342 602.449 47.3359V64H594.279Z" fill="black"/>
</svg>
